<svg class="w-6 h-6" aria-hidden="true" xmlns="http://www.w3.org/2000/svg" width="24" height="24" fill="currentColor"
      viewBox="0 0 24 24">
      <path d="M11.1611 1.79556C11.709 1.63602 12.2909 1.63602 12.8388 1.79556C13.2189 1.90627 13.5341 2.10095 13.8282 2.32363C14.1052 2.53335 14.4172 2.81064 14.7764 3.12995L20.0432 7.81159C20.0716 7.83679 20.0995 7.86165 20.1272 7.88619C20.6489 8.34941 21.0429 8.69935 21.3311 9.13277C21.5746 9.49916 21.7561 9.90321 21.8681 10.3287C22.0006 10.832 22.0004 11.359 22 12.0566C22 12.0936 22 12.131 22 12.169V17.212C22 18.0305 22 18.7061 21.9543 19.2561C21.9069 19.8274 21.805 20.3523 21.5496 20.8439C21.1701 21.5745 20.5744 22.1701 19.8439 22.5496C19.3522 22.805 18.8274 22.9069 18.256 22.9543C17.706 23 17.0305 23 16.2119 23H15.805C15.7972 23 15.7894 23 15.7814 23C15.6603 23 15.5157 23.0001 15.3883 22.9895C15.2406 22.9773 15.0292 22.9458 14.8085 22.8311C14.5345 22.6888 14.3111 22.4654 14.1688 22.1915C14.0542 21.9707 14.0227 21.7593 14.0104 21.6116C13.9998 21.4843 13.9999 21.3396 13.9999 21.2185L14 18C14 16.8954 13.1045 16 12 16C10.8954 16 9.99995 16.8954 9.99995 18L9.99996 21.2185C10 21.3396 10.0001 21.4843 9.98949 21.6116C9.97722 21.7593 9.94572 21.9707 9.83107 22.1915C9.68876 22.4654 9.46538 22.6888 9.19142 22.8311C8.9707 22.9458 8.75929 22.9773 8.6116 22.9895C8.48423 23.0001 8.33959 23 8.21847 23C8.21053 23 8.20268 23 8.19495 23H7.78798C6.96944 23 6.29389 23 5.74388 22.9543C5.17253 22.9069 4.64769 22.805 4.15605 22.5496C3.42548 22.1701 2.8298 21.5745 2.4503 20.8439C2.19492 20.3523 2.09305 19.8274 2.0456 19.2561C1.99993 18.7061 1.99994 18.0305 1.99995 17.212L1.99995 12.169C1.99995 12.131 1.99993 12.0936 1.99992 12.0566C1.99955 11.359 1.99928 10.832 2.1318 10.3287C2.24383 9.90321 2.42528 9.49916 2.66884 9.13277C2.95696 8.69935 3.35105 8.34941 3.87272 7.8862C3.90036 7.86165 3.92835 7.83679 3.95671 7.81159L9.22354 3.12996C9.58274 2.81064 9.89467 2.53335 10.1717 2.32363C10.4658 2.10095 10.781 1.90627 11.1611 1.79556Z"
            fill="currentColor">
      </path>
</svg>
